<?xml version="1.0" encoding="utf-8"?>
<!-- Generator: Adobe Illustrator 21.1.0, SVG Export Plug-In . SVG Version: 6.00 Build 0)  -->
<svg version="1.1" id="Слой_1" xmlns="http://www.w3.org/2000/svg" xmlns:xlink="http://www.w3.org/1999/xlink" x="0px" y="0px"
	 viewBox="0 0 100 100" style="enable-background:new 0 0 100 100;" xml:space="preserve">
<style type="text/css">
	.st0{clip-path:url(#SVGID_2_);}
	.st1{clip-path:url(#SVGID_4_);}
	.st2{clip-path:url(#SVGID_6_);}
	.st3{fill:#23A038;}
	.st4{fill:#F71153;stroke:#F71153;stroke-width:0.5;}
	.st5{font-family:'MuseoSansCyrl-700';}
	.st6{font-size:17.5214px;}
</style>
<g>
	<g>
		<defs>
			<path id="SVGID_1_" d="M91,41c0-2.5-0.2-4.9-0.7-7.3l-8.9,6.5c0,0.2,0,0.6,0,0.8c0,17.4-14.1,31.6-31.6,31.6S18.4,58.5,18.4,41
				C18.4,23.6,32.5,9.4,50,9.4c6.3,0,12.5,1.9,17.8,5.5l8-5.9C58.1-5.2,32.3-2.4,18.1,15.2S6.6,58.6,24.2,72.8
				c17.6,14.3,43.5,11.5,57.6-6.1C87.8,59.4,91,50.3,91,41z"/>
		</defs>
		<clipPath id="SVGID_2_">
			<use xlink:href="#SVGID_1_"  style="overflow:visible;"/>
		</clipPath>
		<g class="st0">
			<g>
				<g id="Layer_1">
					<g>
						<defs>
							<rect id="SVGID_3_" x="7.7" y="-1.3" width="84.7" height="84.7"/>
						</defs>
						<clipPath id="SVGID_4_">
							<use xlink:href="#SVGID_3_"  style="overflow:visible;"/>
						</clipPath>
						<g class="st1">
							<g>
								<g>
									<g>
										<defs>
											<rect id="SVGID_5_" x="7.7" y="-1.3" width="84.7" height="84.7"/>
										</defs>
										<clipPath id="SVGID_6_">
											<use xlink:href="#SVGID_5_"  style="overflow:visible;"/>
										</clipPath>
										<g class="st2">
											
												<image style="overflow:visible;enable-background:new    ;" width="654" height="654" xlink:href="36F8FD52.png"  transform="matrix(0.1296 0 0 0.1296 7.6181 -1.4067)">
											</image>
										</g>
									</g>
								</g>
							</g>
						</g>
					</g>
				</g>
			</g>
			<path class="st3" d="M82.5,15.8c2,2.5,3.6,5.2,4.9,8.1L50.1,51.6l-15.6-9.8V30l15.6,9.8L82.5,15.8z"/>
		</g>
	</g>
	<path class="st3" d="M83.5,15.1c2,2.5,3.6,5.2,4.9,8.1L51.1,50.8l-15.6-9.8V29.3L51.1,39L83.5,15.1z"/>
	<text transform="matrix(1.0692 0 0 1 0 96.6201)" class="st4 st5 st6">ЗДОРОВЬЕ</text>
</g>
</svg>
